<?xml version="1.0" encoding="UTF-8"?>
<svg id="uuid-ecef886d-eac6-4234-b03c-c1b29008b0ea" data-name="Ebene 1" xmlns="http://www.w3.org/2000/svg" xmlns:xlink="http://www.w3.org/1999/xlink" viewBox="0 0 1039 84">
  <defs>
    <style>
      .uuid-cbacdcb9-0cf1-4ec7-aa16-586933677df9 {
        fill: #f0f0f2;
        filter: url(#uuid-b4b3db0f-a502-4ad8-96b1-a1842ea357fa);
      }
    </style>
    <filter id="uuid-b4b3db0f-a502-4ad8-96b1-a1842ea357fa" data-name="drop-shadow-1" filterUnits="userSpaceOnUse">
      <feOffset dx="0" dy="2"/>
      <feGaussianBlur result="uuid-f0de50ac-fca2-4034-b864-d8f7c017d46e" stdDeviation="2"/>
      <feFlood flood-color="#000" flood-opacity=".4"/>
      <feComposite in2="uuid-f0de50ac-fca2-4034-b864-d8f7c017d46e" operator="in"/>
      <feComposite in="SourceGraphic"/>
    </filter>
  </defs>
  <path class="uuid-cbacdcb9-0cf1-4ec7-aa16-586933677df9" d="m1039,0v60h-.58c-26.8-11.16-63.04-18-102.92-18-42.16,0-79.5,12-107.42,19.95-27.08,7.05-61.85,17.05-100.58,17.05-42.13,0-79.5-12-107.36-19.92-27.14-7.08-61.88-17.08-100.64-17.08-42.16,0-79.5,12-107.42,19.95-28.08,7.05-61.85,17.05-100.58,17.05-42.13,0-80.5-13-107.36-19.92-26.14-7.08-61.88-17.08-100.64-17.08S27.38,48.84.58,60h-.58V0h1039Z"/>
</svg>